<mxfile host="app.diagrams.net" modified="2023-05-25T15:52:15.841Z" agent="Mozilla/5.0 (Windows NT 10.0; Win64; x64) AppleWebKit/537.36 (KHTML, like Gecko) Chrome/113.0.0.0 Safari/537.36" version="21.3.4" etag="scie-W7tCkxIiBUMbmgR" type="github">
  <diagram name="Page-1" id="dLvFVBrnuHoBjVomGyCb">
    <mxGraphModel>
      <root>
        <mxCell id="0" />
        <mxCell id="1" parent="0" />
      </root>
    </mxGraphModel>
  </diagram>
</mxfile>
